Coordinates
version=1
nRows=11
nColumns=36
inDegrees=yes

Units are S.I. units (second, meters, Newtons, ...)
If the header above contains a line with 'inDegrees', this indicates whether rotational values are in degrees (yes) or radians (no).

endheader
time	pelvis_tilt	pelvis_list	pelvis_rotation	pelvis_tx	pelvis_ty	pelvis_tz	hip_flexion_r	hip_adduction_r	hip_rotation_r	knee_angle_r	knee_angle_r_beta	ankle_angle_r	subtalar_angle_r	mtp_angle_r	hip_flexion_l	hip_adduction_l	hip_rotation_l	knee_angle_l	knee_angle_l_beta	ankle_angle_l	subtalar_angle_l	mtp_angle_l	lumbar_extension	lumbar_bending	lumbar_rotation	arm_flex_r	arm_add_r	arm_rot_r	elbow_flex_r	pro_sup_r	arm_flex_l	arm_add_l	arm_rot_l	elbow_flex_l	pro_sup_l
      0.00000000	      2.69369623	     -1.41509467	      2.26010025	      1.05160692	      0.91573969	      0.71572135	     23.49283585	     -0.19937200	     -0.55304741	      4.87921248	      0.08515832	      5.71621890	     -1.22316998	     -7.02456891	    -15.99653456	      0.14219912	      6.73518828	     12.98579489	      0.22664488	     16.02658746	     -7.95568458	     -7.02456891	    -18.16308013	      1.64255223	     -1.17428687	     -0.21629463	    -12.83374081	    -21.06811961	     21.82148960	     92.23988405	     23.61046430	    -11.69331234	     17.27853182	     25.91849996	     88.51249306
      0.01666670	      1.12960791	     -0.97536534	      3.07920624	      1.05640390	      0.90893388	      0.71614291	     24.77525941	     -0.94955205	      0.45003063	      4.51506560	      0.07880276	      7.12123221	     -0.87956279	     -7.05244595	    -14.80206307	      0.42088033	      8.66322355	     14.74458360	      0.25734153	     14.19412423	     -8.03497175	     -7.05244595	    -17.16997246	      1.52795635	     -2.91339333	      0.42587977	    -13.04083996	    -22.62571576	     20.11582662	     91.10526256	     22.64242570	    -12.59230026	     17.63083220	     27.77339879	     87.92595192
      0.03333330	     -0.92339877	     -1.18619092	      2.53944213	      1.06214266	      0.90462830	      0.71927754	     26.51475004	     -0.58833066	      1.96686038	      4.51097529	      0.07873137	      5.61039481	     -0.72200024	     -7.10138192	    -13.21523758	      0.16436547	      9.75013478	     17.50184166	      0.30546476	     14.52483582	     -6.97509194	     -7.10138192	    -14.36435073	      2.14654839	     -4.34615877	      1.74772269	    -13.18250051	    -23.65633760	     17.67142643	     89.56726423	     20.30086824	    -13.02885824	     16.18662217	     28.69137658	     86.62224193
      0.05000000	     -1.54906478	     -1.85353086	      2.16949338	      1.06779214	      0.90426323	      0.72394868	     26.80011318	      0.60138552	      2.32600293	      6.17236122	      0.10772803	      4.48350148	     -0.61574737	     -7.13010092	    -13.01517572	     -0.70745135	      9.71009252	     19.85679469	      0.34656645	     13.72081210	     -6.87375877	     -7.13010092	    -13.53400359	      3.25031929	     -4.66160195	      2.34045456	    -13.48406257	    -23.67318556	     16.67169620	     87.48703147	     19.18517934	    -12.90889628	     15.29397257	     28.97062032	     85.22719314
      0.06666670	     -1.31855312	     -2.56119472	      1.50527647	      1.07289133	      0.90600106	      0.72819105	     26.26956297	      2.02320740	      2.86466441	      8.48364104	      0.14806747	      2.76778009	     -0.82799850	     -7.17589836	    -13.77072766	     -1.67598508	      8.73067877	     21.88409170	      0.38194945	     11.63962541	     -7.00112506	     -7.17589836	    -13.52193573	      4.26342075	     -4.84795583	      3.10080528	    -13.68432041	    -23.03831562	     15.95939850	     85.96386670	     18.02055826	    -12.81188973	     13.82623140	     29.24274696	     84.69065885
      0.08333330	     -0.93076611	     -3.30675861	      0.86043309	      1.07687400	      0.90754800	      0.73091697	     25.56088417	      3.38271895	      3.28713034	     10.93348410	      0.19082530	      1.49224761	     -1.29292649	     -7.20853997	    -14.27155075	     -2.71614620	      7.32491482	     24.25139159	      0.42326663	      8.87035710	     -6.77627807	     -7.20853997	    -13.64753370	      5.26409623	     -4.58815077	      3.41453175	    -13.95772036	    -22.34832376	     15.46980034	     84.93758778	     17.11161725	    -12.54686999	     12.75553951	     29.19860482	     84.22936962
      0.10000000	     -0.50833572	     -3.93033438	      0.26834637	      1.07939545	      0.90846130	      0.73360790	     24.74891566	      4.50775568	      3.57643729	     13.20927636	      0.23054536	      0.98107996	     -1.65407668	     -7.21929212	    -14.06697472	     -3.66555589	      5.81896153	     27.56709978	      0.48113666	      5.42465830	     -6.48581869	     -7.21929212	    -13.86284207	      6.06410302	     -4.19843031	      3.63870576	    -14.09963025	    -21.47290818	     15.09539936	     84.57729612	     16.21074802	    -12.18200889	     11.64727637	     29.15105214	     84.03644887
      0.11666670	      0.06236830	     -4.37097845	     -0.28638412	      1.08123741	      0.91037445	      0.73709781	     23.65511166	      5.40054304	      3.82498775	     15.26119930	      0.26635818	      1.18560188	     -1.85628085	     -7.22461368	    -13.03729737	     -4.55914374	      4.18739542	     32.20441887	      0.56207314	      1.15815448	     -5.82222380	     -7.22461368	    -14.41919105	      6.63591953	     -3.75229777	      3.67802431	    -14.09506070	    -21.31439800	     15.47197571	     84.43884288	     15.38358228	    -12.16875817	     11.51097424	     29.03202693	     83.87460726
      0.13333330	      0.46935552	     -4.66176872	     -0.93836155	      1.08365034	      0.91536198	      0.74114575	     22.55276929	      6.17687108	      4.34204250	     17.08550750	      0.29819836	      1.68404205	     -2.43329705	     -7.23312122	    -11.01078584	     -5.38735949	      2.62471994	     37.90472650	      0.66156228	     -4.06848618	     -5.84732511	     -7.23312122	    -14.73381615	      7.00367270	     -2.88348525	      3.77072865	    -14.17383988	    -20.31182223	     15.29476811	     84.54754289	     14.51002554	    -11.74771350	     10.62430228	     28.49557906	     83.67993226
      0.15000000	      0.93546233	     -4.75643107	     -1.32436594	      1.08642966	      0.92415745	      0.74575015	     21.11167234	      6.61909461	      4.60725452	     18.40702559	      0.32126320	      2.18564002	     -2.59875305	     -7.28967209	     -8.67911378	     -6.12722542	      1.53650819	     43.62320047	      0.76136848	     -9.21843468	     -5.73697052	     -7.28967209	    -15.13339405	      7.08204616	     -3.07142832	      4.69324720	    -14.35343080	    -13.71940368	     14.50487912	     83.49021017	     12.90089195	    -11.58509795	      7.60071942	     28.20858437	     83.39618378
      0.16666670	      1.30030133	     -4.67406668	     -1.57512185	      1.08915736	      0.93241687	      0.75037519	     19.51974427	      6.81056001	      4.81772547	     19.14262356	      0.33410181	      2.45208287	     -2.68941457	     -7.28969736	     -6.23429434	     -6.62652334	      0.78968538	     48.81187578	      0.85192795	    -13.68801009	     -6.00816377	     -7.28969736	    -15.45749813	      6.92491635	     -2.09485161	      4.84848013	    -14.10404881	    -11.82710643	     14.54720560	     82.08267942	     12.15237277	    -11.18376202	      6.93855965	     27.02899654	     82.36772983
